# xmcd
#
# Track frame offsets: 
#        150
#        7634
#        23588
#        37896
#        58213
#        65093
#        75083
#        89809
#        117109
#        129641
#        143262
#        159285
#        184478
#        203889
#        212512
#        219558
#
# Disc length: 3168 seconds
#
# Revision: 0
# Processed by: cddbd v1.5.2PL0 Copyright (c) Steve Scherf et al.
# Submitted via: ExactAudioCopy v1.0b3
#
DISCID=cf0c5e10
DTITLE=Various Artist - Soul of Tone - CD2, Modern Tracks
DYEAR=2007
DGENRE=Blues
TTITLE0=Steve Grom - 1989 Princeton Chorus
TTITLE1=Steve Grom - 2005 '59 Bassman LTD
TTITLE2=Steve Grom, Mike Lewis, Shane Nicholas, Ritchie Fliegler - 200
TTITLE2=5 '65 Twin Reverb
TTITLE3=Mike Lewis - 2005 Vibro-King Custom
TTITLE4=Mike Lewis - 2006 Blues Junior
TTITLE5=Mike Lewis - 2005 Blues Deluxe Super Reverb
TTITLE6=Richard McDonald - 2001 '65 Super Reverb
TTITLE7=Richard McDonald - 2006 Cyber-Twin SE
TTITLE8=Ritchie Fliegler - Acoustasonic Ultralight head and enclousure
TTITLE9=Ritchie Fliegler - 2005 Frontman 15G
TTITLE10=Shane Nicholas - 2005 G-DEC
TTITLE11=Ritchie Fliegler - Hot Rod Deluxe
TTITLE12=Shane Nicholas - Super-Sonic
TTITLE13=Shane Nicholas - 2004 '64 Vibroverb Custom
TTITLE14=Shane Nicholas - 2004 '57 Twin-Amp
TTITLE15=John Dreyer - 2005 Metalhead and MH412SL cabinet
EXTD=
EXTT0=
EXTT1=
EXTT2=
EXTT3=
EXTT4=
EXTT5=
EXTT6=
EXTT7=
EXTT8=
EXTT9=
EXTT10=
EXTT11=
EXTT12=
EXTT13=
EXTT14=
EXTT15=
PLAYORDER=
